<?xml version="1.0" encoding="utf-8"?>
<!-- Generator: Adobe Illustrator 25.0.1, SVG Export Plug-In . SVG Version: 6.00 Build 0)  -->
<svg version="1.1" id="Capa_1" xmlns="http://www.w3.org/2000/svg" xmlns:xlink="http://www.w3.org/1999/xlink" x="0px" y="0px"
	 viewBox="0 0 348.3 348.3" style="enable-background:new 0 0 348.3 348.3;" xml:space="preserve">
<style type="text/css">
	.st0{fill:url(#SVGID_1_);}
</style>
<g>
	<linearGradient id="SVGID_1_" gradientUnits="userSpaceOnUse" x1="-0.175" y1="175.9625" x2="348.1625" y2="175.9625">
		<stop  offset="0" style="stop-color:#33378C"/>
		<stop  offset="1" style="stop-color:#D84D95"/>
	</linearGradient>
	<path class="st0" d="M336.4,70.3L230.8,175.9l105.5,105.5c15.7,15.7,15.7,41.1,0,56.9c-7.8,7.8-18.1,11.8-28.4,11.8
		s-20.6-3.9-28.4-11.8L174,232.8L68.4,338.4c-7.8,7.8-18.1,11.8-28.4,11.8s-20.6-3.9-28.4-11.8c-15.7-15.7-15.7-41.1,0-56.9
		L117.1,176L11.6,70.3c-15.7-15.7-15.7-41.1,0-56.8s41.1-15.7,56.8,0L174,119.1L279.5,13.6c15.7-15.7,41.1-15.7,56.8,0
		C352.1,29.3,352.1,54.7,336.4,70.3z"/>
</g>
</svg>
