<svg id="Facebook_black" xmlns="http://www.w3.org/2000/svg" xmlns:xlink="http://www.w3.org/1999/xlink" width="48" height="48" viewBox="0 0 48 48">
  <defs>
    <linearGradient id="linear-gradient" y1="0.5" x2="1" y2="0.5" gradientUnits="objectBoundingBox">
      <stop offset="0" stop-color="#333592"/>
      <stop offset="1" stop-color="#eb3d98"/>
    </linearGradient>
  </defs>
  <g id="Facebook">
    <path id="Combined-Shape" d="M24,48A24.006,24.006,0,0,1,14.658,1.886,24.006,24.006,0,0,1,33.342,46.114,23.849,23.849,0,0,1,24,48ZM18.4,20.555v4.5h2.7V38.111h5.4V25.054h3.6l.478-4.5H26.5l.006-2.252c0-1.151.083-1.8,1.8-1.8h2.253V12h-3.6c-2.1,0-3.593.507-4.551,1.55a6.127,6.127,0,0,0-1.3,4.3v2.7Z" fill="url(#linear-gradient)"/>
  </g>
</svg>
