<svg xmlns="http://www.w3.org/2000/svg" xmlns:xlink="http://www.w3.org/1999/xlink" viewBox="0 0 105.15 105.15"><defs><style>.cls-1{fill:url(#New_Gradient_Swatch);}.cls-2{fill:url(#New_Gradient_Swatch-2);}</style><linearGradient id="New_Gradient_Swatch" x1="46.11" y1="52.03" x2="55.77" y2="52.03" gradientUnits="userSpaceOnUse"><stop offset="0" stop-color="#33378d"/><stop offset="1" stop-color="#d94e96"/></linearGradient><linearGradient id="New_Gradient_Swatch-2" x1="-1.24" y1="52.57" x2="104.25" y2="52.57" xlink:href="#New_Gradient_Swatch"/></defs><g id="Layer_2" data-name="Layer 2"><g id="Layer_1-2" data-name="Layer 1"><path class="cls-1" d="M54.1,51.35a2.78,2.78,0,0,1-5.47.72l-2.48.9,0-.06c.58-.43,1.15-.89,1.76-1.28.77-.49,1.58-.93,2.38-1.38a3,3,0,0,1,2.43-.2,9.52,9.52,0,0,1,3.09,1.69Z"/><path class="cls-2" d="M52.57,0A52.58,52.58,0,1,0,87.52,91.83C85.13,84.24,77.86,66.29,62,64.15c0,0-8.74,11.82-16.24,8,0,0-1.34,8.66-9.31,7.58s-6.82-7.52-6.82-7.52S27.86,67.8,33,64.56c0,0,5.38-5.15,6-10.74a28.43,28.43,0,0,1,.91-4.88L14.68,20.45l31.86,17c.58-.67,1.18-1.34,1.85-2L45.11,25.06S52.77,23.41,59,30.77c0,0,28.64,2.64,46,24.66.05-1,.08-1.9.08-2.86A52.58,52.58,0,0,0,52.57,0Z"/></g></g></svg>