<svg xmlns="http://www.w3.org/2000/svg" xmlns:xlink="http://www.w3.org/1999/xlink" viewBox="0 0 184.82 157.04"><defs><style>.cls-1{fill:url(#linear-gradient);}.cls-2{fill:url(#linear-gradient-2);}.cls-3{fill:url(#linear-gradient-3);}.cls-4{fill:url(#linear-gradient-4);}.cls-5{fill:url(#linear-gradient-5);}.cls-6{fill:url(#linear-gradient-6);}.cls-7{fill:url(#linear-gradient-7);}.cls-8{fill:url(#linear-gradient-10);}.cls-9{fill:url(#linear-gradient-11);}.cls-10{fill:url(#linear-gradient-12);}.cls-11{fill:url(#linear-gradient-14);}.cls-12{fill:url(#New_Gradient_Swatch);}.cls-13{fill:url(#New_Gradient_Swatch-2);}</style><linearGradient id="linear-gradient" x1="-1.45" y1="134.04" x2="184.23" y2="134.04" gradientUnits="userSpaceOnUse"><stop offset="0" stop-color="#33378d"/><stop offset="1" stop-color="#d94e96"/></linearGradient><linearGradient id="linear-gradient-2" x1="-1.45" y1="134.14" x2="184.23" y2="134.14" xlink:href="#linear-gradient"/><linearGradient id="linear-gradient-3" x1="-1.45" y1="145.51" x2="184.23" y2="145.51" xlink:href="#linear-gradient"/><linearGradient id="linear-gradient-4" x1="-1.45" y1="138.72" x2="184.23" y2="138.72" xlink:href="#linear-gradient"/><linearGradient id="linear-gradient-5" x1="-1.45" y1="140.5" x2="184.23" y2="140.5" xlink:href="#linear-gradient"/><linearGradient id="linear-gradient-6" x1="-1.45" y1="145.53" x2="184.23" y2="145.53" xlink:href="#linear-gradient"/><linearGradient id="linear-gradient-7" x1="-1.45" y1="134.08" x2="184.23" y2="134.08" xlink:href="#linear-gradient"/><linearGradient id="linear-gradient-10" x1="-1.45" y1="140.56" x2="184.23" y2="140.56" xlink:href="#linear-gradient"/><linearGradient id="linear-gradient-11" x1="-1.45" y1="140.48" x2="184.23" y2="140.48" xlink:href="#linear-gradient"/><linearGradient id="linear-gradient-12" x1="-1.45" y1="140.44" x2="184.23" y2="140.44" xlink:href="#linear-gradient"/><linearGradient id="linear-gradient-14" x1="-1.45" y1="140.52" x2="184.23" y2="140.52" xlink:href="#linear-gradient"/><linearGradient id="New_Gradient_Swatch" x1="85.87" y1="52.03" x2="95.53" y2="52.03" gradientUnits="userSpaceOnUse"><stop offset="0" stop-color="#33378d"/><stop offset="1" stop-color="#d94e96"/></linearGradient><linearGradient id="New_Gradient_Swatch-2" x1="38.52" y1="52.57" x2="144.01" y2="52.57" xlink:href="#New_Gradient_Swatch"/></defs><g id="Layer_2" data-name="Layer 2"><g id="Layer_1-2" data-name="Layer 1"><path class="cls-1" d="M5,145.53a.59.59,0,0,0,0,.14.27.27,0,0,1,0,.13,1.14,1.14,0,0,1-.35.83,1.15,1.15,0,0,1-.83.36,1.79,1.79,0,0,1-1.45-.81,7.48,7.48,0,0,1-1.05-2.06,18.92,18.92,0,0,1-.71-2.77c-.18-1-.32-2-.41-3s-.16-1.87-.2-2.69S0,134.26,0,133.86C0,133,0,132,.12,131a19.89,19.89,0,0,1,.49-3.14,13.45,13.45,0,0,1,1.07-2.93,6.52,6.52,0,0,1,1.8-2.23,5,5,0,0,1,1.23-.7,7,7,0,0,1,1.4-.37,14.55,14.55,0,0,1,1.48-.16c.5,0,1,0,1.43,0l1.2,0,1.21,0h.48a3.25,3.25,0,0,0,.51,0,1.07,1.07,0,0,1,.79-.32,1.23,1.23,0,0,1,1.19,1.19,1.24,1.24,0,0,1-.28.83,1.72,1.72,0,0,1-.69.48,3.22,3.22,0,0,1-.87.19c-.31,0-.59,0-.85,0s-.54,0-1,0l-1.45,0c-.47,0-.95,0-1.44,0s-.94.07-1.36.12a4,4,0,0,0-1.07.26.8.8,0,0,0-.52.49,3.27,3.27,0,0,0-.11.81c0,.41-.06.9-.08,1.47s0,1.16-.06,1.8,0,1.24,0,1.82,0,1.09,0,1.54v.95c.34,0,.68,0,1,0h2c.36,0,.72,0,1.09,0a8.92,8.92,0,0,0,1.07-.14,4.1,4.1,0,0,0,.87-.26A1,1,0,0,1,11,132a1.23,1.23,0,0,1,1.58.1A1.14,1.14,0,0,1,13,133a1.66,1.66,0,0,1-.69,1.42,4.31,4.31,0,0,1-1.68.75,9.83,9.83,0,0,1-2,.28c-.7,0-1.27,0-1.72,0H5.72c-.39,0-.76,0-1.13,0q0,2.49.06,5A38.48,38.48,0,0,0,5,145.53Z"/><path class="cls-2" d="M15.07,132.71c0-1.42,0-2.77.12-4s.18-2.36.31-3.29c.06-.34.14-.75.24-1.22a7.36,7.36,0,0,1,.44-1.35,3.27,3.27,0,0,1,.73-1.08,1.55,1.55,0,0,1,1.17-.46,1.06,1.06,0,0,1,1,.56,4.87,4.87,0,0,1,.26,1.62c.07.92.13,2.05.18,3.4s.09,2.79.12,4.35,0,3,.06,4.45,0,2.65,0,3.72,0,1.77,0,2.11v1.56c0,.52,0,1,0,1.57a11.53,11.53,0,0,1-.1,1.2,1.55,1.55,0,0,1-.18.54,1.21,1.21,0,0,1-1.07.63,2.07,2.07,0,0,1-.63-.14,1.82,1.82,0,0,1-.79-.65,6.74,6.74,0,0,1-1-2.65,31.73,31.73,0,0,1-.55-3.86c-.12-1.35-.2-2.68-.24-4S15.07,133.42,15.07,132.71Z"/><path class="cls-3" d="M25.87,143.39c0,.05.09.08.27.08a1.59,1.59,0,0,0,1.29-.87,9.74,9.74,0,0,0,1-2,19.79,19.79,0,0,0,.67-2.29c.17-.77.28-1.33.34-1.7.18-.69.56-1,1.14-1a2.64,2.64,0,0,1,2,.79,5.43,5.43,0,0,1,1.15,1.92,10.75,10.75,0,0,1,.53,2.37,20.55,20.55,0,0,1,.14,2.16,22.39,22.39,0,0,1-.2,2.77,23.84,23.84,0,0,1-.61,3.12,21.3,21.3,0,0,1-1.07,3.09,11.39,11.39,0,0,1-1.6,2.67,7.83,7.83,0,0,1-2.2,1.87,5.53,5.53,0,0,1-2.82.72,2.47,2.47,0,0,1-1.49-.46,3.78,3.78,0,0,1-1-1.13,5.28,5.28,0,0,1-.59-1.5,6.78,6.78,0,0,1-.2-1.54,5.35,5.35,0,0,1,1.45-3.88,5.08,5.08,0,0,1,3.85-1.5,7.94,7.94,0,0,1,.83,0,8.66,8.66,0,0,1,.87.12A41.09,41.09,0,0,0,30,143a8.09,8.09,0,0,1-1.52,2,3.19,3.19,0,0,1-2.32.89,5.25,5.25,0,0,1-2.21-.43,4.31,4.31,0,0,1-1.58-1.21,5.09,5.09,0,0,1-1-1.78,7.29,7.29,0,0,1-.32-2.19,9.37,9.37,0,0,1,.22-1.88,8.87,8.87,0,0,1,.67-2.06,5.21,5.21,0,0,1,1.19-1.64,2.45,2.45,0,0,1,1.72-.67,1.27,1.27,0,0,1,1.18.59,2.48,2.48,0,0,1,.36,1.31,7,7,0,0,1-.1,1.14c-.06.43-.15.91-.26,1.47s-.23,1.2-.31,1.8a13.38,13.38,0,0,0-.12,1.8,4.13,4.13,0,0,0,.08.95A.76.76,0,0,0,25.87,143.39Zm0,11.27a1.75,1.75,0,0,0,1.22-.65,6.6,6.6,0,0,0,1-1.44,10.17,10.17,0,0,0,.67-1.7c.18-.58.3-1,.38-1.35a6.18,6.18,0,0,0-1.23-.12,2.78,2.78,0,0,0-2.17.83,3.21,3.21,0,0,0-.75,2.22,3.45,3.45,0,0,0,.06.51c0,.24.09.48.15.73a2.77,2.77,0,0,0,.28.68A.51.51,0,0,0,25.91,154.66Z"/><path class="cls-4" d="M39.59,135.72a1.72,1.72,0,0,1,.46.95,14.46,14.46,0,0,1,.13,2.41q0,.87,0,2c0,.77-.07,1.69-.12,2.75,0,.42,0,.8,0,1.14s0,.61,0,.79a1.1,1.1,0,0,1-.36.85,1.15,1.15,0,0,1-.83.34,2,2,0,0,1-1.62-.75,5.8,5.8,0,0,1-1-1.82,10.2,10.2,0,0,1-.51-2.2,14.32,14.32,0,0,1-.14-1.87,9.53,9.53,0,0,1,.14-1.63,5.76,5.76,0,0,1,.49-1.62,3.67,3.67,0,0,1,1-1.26,2.32,2.32,0,0,1,1.56-.52A1.27,1.27,0,0,1,39.59,135.72ZM38,134.33a2,2,0,1,1,1.36-.57A1.85,1.85,0,0,1,38,134.33Z"/><path class="cls-5" d="M49.84,138.92c0-.39,0-.8,0-1.2a5.5,5.5,0,0,0-.18-1.17,1.52,1.52,0,0,0-.36.43c-.13.22-.29.52-.47.91A14.78,14.78,0,0,0,48,140c-.24.77-.47,1.5-.68,2.22-.15.52-.31,1-.45,1.52a12.3,12.3,0,0,1-.46,1.28,4.46,4.46,0,0,1-.23.56,4.39,4.39,0,0,1-.38.61,1.92,1.92,0,0,1-.55.51,1.36,1.36,0,0,1-.77.22,2.12,2.12,0,0,1-1.57-.61,4.48,4.48,0,0,1-1-1.48,7.53,7.53,0,0,1-.47-1.84,14,14,0,0,1-.12-1.68,11.51,11.51,0,0,1,.16-1.82,8,8,0,0,1,.53-1.94,4.18,4.18,0,0,1,1-1.53,2.48,2.48,0,0,1,1.7-.61,1.09,1.09,0,0,1,1,.5,2,2,0,0,1,.32,1.08c0,.14,0,.27,0,.4s0,.28-.06.43,0,.28,0,.42,0,.3-.06.45c.16-.44.34-.94.55-1.48a7.64,7.64,0,0,1,.79-1.5,5.16,5.16,0,0,1,1.11-1.17,2.41,2.41,0,0,1,1.47-.47,3.25,3.25,0,0,1,2.11.69,5.15,5.15,0,0,1,1.37,1.74,8.1,8.1,0,0,1,.71,2.25,14.18,14.18,0,0,1,.2,2.24,14.71,14.71,0,0,1-.14,1.84,8.48,8.48,0,0,1-.52,2,4.56,4.56,0,0,1-1,1.58,2.34,2.34,0,0,1-1.7.65,1,1,0,0,1-1-.61,3.17,3.17,0,0,1-.26-1.29c0-.5,0-1.26.12-2.29,0-.61.09-1.25.12-1.94S49.84,139.53,49.84,138.92Z"/><path class="cls-6" d="M69.85,144.62a17.94,17.94,0,0,1-.54,4.29,13.35,13.35,0,0,1-1.66,4,9.43,9.43,0,0,1-2.88,2.95A7.68,7.68,0,0,1,60.51,157a2.91,2.91,0,0,1-2.19-.85,3.11,3.11,0,0,1-.81-2.24,6.05,6.05,0,0,1,.47-2.29,7.17,7.17,0,0,1,1.31-2.08,6.65,6.65,0,0,1,1.92-1.5,4.81,4.81,0,0,1,2.27-.57,4.3,4.3,0,0,1,1.74.35,12.8,12.8,0,0,0,.26-1.8q.06-.89.06-1.8c0-.47,0-.95,0-1.42a12.3,12.3,0,0,0-.16-1.39,15.72,15.72,0,0,1-.69,1.74,6.44,6.44,0,0,1-1,1.55,5.2,5.2,0,0,1-1.4,1.08,3.93,3.93,0,0,1-1.86.42,6.58,6.58,0,0,1-1.86-.26,4.79,4.79,0,0,1-1.55-.77,3.65,3.65,0,0,1-1.06-1.32,4.16,4.16,0,0,1-.4-1.88,6.34,6.34,0,0,1,.81-3.15,8.87,8.87,0,0,1,2.1-2.51,9.86,9.86,0,0,1,2.89-1.66,9.16,9.16,0,0,1,3.18-.59,1.16,1.16,0,0,1,.85.33,1.14,1.14,0,0,1,.34.81,1.11,1.11,0,0,1-.28.8,3.57,3.57,0,0,1,2.21,1.16A7.27,7.27,0,0,1,69,139.42a12,12,0,0,1,.69,2.71A18.63,18.63,0,0,1,69.85,144.62Zm-9.34,10a2.72,2.72,0,0,0,1.51-.43,4.59,4.59,0,0,0,1.18-1.11,7.08,7.08,0,0,0,.87-1.44,14.51,14.51,0,0,0,.6-1.49,2.69,2.69,0,0,0-1.19-.27,2.51,2.51,0,0,0-1.34.39,5.16,5.16,0,0,0-1.15,1,4.94,4.94,0,0,0-.81,1.31,3.44,3.44,0,0,0-.3,1.34,1.1,1.1,0,0,0,.1.54C60.05,154.56,60.22,154.62,60.51,154.62Zm-.07-10.79a1.84,1.84,0,0,0,1.48-.79,7,7,0,0,0,1-1.9,12.92,12.92,0,0,0,.57-2.24,12,12,0,0,0,.18-1.8.22.22,0,0,1,0-.16.84.84,0,0,1,.16-.43,3.36,3.36,0,0,0-1.49,1,8.37,8.37,0,0,0-1.2,1.7,9.28,9.28,0,0,0-.81,1.94,6.11,6.11,0,0,0-.3,1.74,4.93,4.93,0,0,0,0,.57C60.15,143.7,60.25,143.83,60.44,143.83Z"/><path class="cls-7" d="M97.5,147a1.71,1.71,0,0,1-1.37-.59,3.87,3.87,0,0,1-.73-1.43,7.53,7.53,0,0,1-.28-1.74c0-.6,0-1.1,0-1.5,0-1.42.07-2.84.2-4.25s.26-2.83.4-4.25c-.14.58-.29,1.32-.48,2.23s-.42,1.88-.71,2.91-.62,2-1,3.08a15.63,15.63,0,0,1-1.3,2.79,7.67,7.67,0,0,1-1.71,2,3.26,3.26,0,0,1-2.09.77,6.08,6.08,0,0,1-3.7-1.07,7.47,7.47,0,0,1-2.27-2.73,12.21,12.21,0,0,1-1.15-3.64,24,24,0,0,1-.32-3.79c0-.56,0-1.3.12-2.24s.21-1.94.4-3a31.46,31.46,0,0,1,.73-3.29,16.72,16.72,0,0,1,1.11-3,7.55,7.55,0,0,1,1.54-2.2,2.85,2.85,0,0,1,2-.85,1.15,1.15,0,0,1,.83.36,1.16,1.16,0,0,1,.35.83.78.78,0,0,1,0,.22,1,1,0,0,1-.06.21,50.71,50.71,0,0,0-1.9,7.1,40.21,40.21,0,0,0-.67,7.3c0,.5,0,1.17.08,2a13.44,13.44,0,0,0,.38,2.45,6.34,6.34,0,0,0,.89,2.1,1.89,1.89,0,0,0,1.66.89c.5,0,1-.38,1.46-1.15a15.89,15.89,0,0,0,1.37-2.93q.64-1.77,1.2-3.93c.37-1.44.71-2.82,1-4.15s.56-2.53.77-3.58a21.3,21.3,0,0,1,.52-2.22l.27-.89a4.45,4.45,0,0,1,.42-.91,2.4,2.4,0,0,1,.61-.69,1.35,1.35,0,0,1,.87-.28,2.54,2.54,0,0,1,1.94.75,4.87,4.87,0,0,1,1.07,1.86,9.84,9.84,0,0,1,.43,2.3c.06.79.08,1.49.08,2.09a50.72,50.72,0,0,1-.55,7.46q-.56,3.74-1.19,7.41a1.69,1.69,0,0,1-.35.85A1,1,0,0,1,97.5,147Z"/><path class="cls-5" d="M109.68,138.92c0-.39,0-.8,0-1.2a5.5,5.5,0,0,0-.18-1.17,1.52,1.52,0,0,0-.36.43c-.13.22-.29.52-.47.91a14.78,14.78,0,0,0-.79,2.06c-.24.77-.46,1.5-.68,2.22-.15.52-.3,1-.45,1.52s-.3.91-.45,1.28c-.06.16-.14.35-.24.56a4.39,4.39,0,0,1-.38.61,1.92,1.92,0,0,1-.55.51,1.36,1.36,0,0,1-.77.22,2.08,2.08,0,0,1-1.56-.61,4.33,4.33,0,0,1-1-1.48,7.12,7.12,0,0,1-.48-1.84,14,14,0,0,1-.12-1.68,12.83,12.83,0,0,1,.16-1.82,8,8,0,0,1,.54-1.94,4.16,4.16,0,0,1,1-1.53,2.48,2.48,0,0,1,1.7-.61,1.09,1.09,0,0,1,1,.5,2,2,0,0,1,.32,1.08c0,.14,0,.27,0,.4a3.68,3.68,0,0,1-.06.43c0,.14,0,.28,0,.42a3.47,3.47,0,0,1-.06.45c.16-.44.34-.94.55-1.48a7.68,7.68,0,0,1,.8-1.5,4.92,4.92,0,0,1,1.1-1.17,2.41,2.41,0,0,1,1.47-.47,3.25,3.25,0,0,1,2.11.69,5.15,5.15,0,0,1,1.37,1.74,8.1,8.1,0,0,1,.71,2.25,14.18,14.18,0,0,1,.2,2.24,14.71,14.71,0,0,1-.14,1.84,8,8,0,0,1-.52,2,4.68,4.68,0,0,1-1,1.58,2.37,2.37,0,0,1-1.7.65,1,1,0,0,1-1-.61,3.34,3.34,0,0,1-.26-1.29c0-.5,0-1.26.12-2.29,0-.61.09-1.25.12-1.94S109.68,139.53,109.68,138.92Z"/><path class="cls-4" d="M119.56,135.72a1.6,1.6,0,0,1,.46.95,14.14,14.14,0,0,1,.14,2.41c0,.58,0,1.26,0,2s-.07,1.69-.12,2.75c0,.42,0,.8,0,1.14s0,.61,0,.79a1.1,1.1,0,0,1-.36.85,1.13,1.13,0,0,1-.83.34,2,2,0,0,1-1.62-.75,5.8,5.8,0,0,1-1-1.82,10.2,10.2,0,0,1-.51-2.2,16.33,16.33,0,0,1-.14-1.87,10.66,10.66,0,0,1,.14-1.63,6.1,6.1,0,0,1,.49-1.62,3.67,3.67,0,0,1,1-1.26,2.32,2.32,0,0,1,1.57-.52A1.25,1.25,0,0,1,119.56,135.72ZM118,134.33a1.94,1.94,0,0,1,0-3.87,1.95,1.95,0,0,1,1.94,1.94,1.87,1.87,0,0,1-.57,1.36A1.89,1.89,0,0,1,118,134.33Z"/><path class="cls-8" d="M129.69,138.45a1.05,1.05,0,0,1-.75-.3,1.29,1.29,0,0,1-.4-.73c0-.45-.21-.71-.49-.79a2.49,2.49,0,0,0-.62-.12c-.31,0-.57.22-.77.65a8,8,0,0,0-.47,1.5,14.41,14.41,0,0,0-.26,1.69c-.05.55-.08,1-.08,1.18a8.09,8.09,0,0,0,.06.89,6.23,6.23,0,0,0,.2,1,2.32,2.32,0,0,0,.42.83.85.85,0,0,0,.71.36,1.84,1.84,0,0,0,1.14-.44,3.93,3.93,0,0,0,1-1.07,6.11,6.11,0,0,0,.64-1.34,4.15,4.15,0,0,0,.23-1.23,1.15,1.15,0,0,1,.36-.83,1.16,1.16,0,0,1,.83-.35,1.14,1.14,0,0,1,.85.35,1.21,1.21,0,0,1,.34.83,6.25,6.25,0,0,1-.42,2.2,8,8,0,0,1-1.13,2.07,6.11,6.11,0,0,1-1.68,1.57,3.84,3.84,0,0,1-2.11.61,5.86,5.86,0,0,1-4.27-1.58,5.63,5.63,0,0,1-1.63-4.23,8,8,0,0,1,.42-2.54,7.18,7.18,0,0,1,1.21-2.25,6.54,6.54,0,0,1,1.89-1.62,5,5,0,0,1,2.5-.63,4.11,4.11,0,0,1,1.3.21,3.94,3.94,0,0,1,1.15.64,3.06,3.06,0,0,1,.81,1,2.79,2.79,0,0,1,.3,1.29,1.13,1.13,0,0,1-.36.83A1.19,1.19,0,0,1,129.69,138.45Z"/><path class="cls-9" d="M144.76,140.23a9.61,9.61,0,0,1-.28,2.25,7.66,7.66,0,0,1-.87,2.2,5.44,5.44,0,0,1-1.5,1.66,3.67,3.67,0,0,1-2.18.65,6.94,6.94,0,0,1-2.51-.45,6.33,6.33,0,0,1-2-1.29,5.69,5.69,0,0,1-1.34-2,6.35,6.35,0,0,1-.47-2.49,6.09,6.09,0,0,1,.35-2.1,6.45,6.45,0,0,1,1-1.78,5.44,5.44,0,0,1,1.52-1.3,5.5,5.5,0,0,1,2-.67,1.09,1.09,0,0,1,.42-.7,1.23,1.23,0,0,1,.77-.25,4.52,4.52,0,0,1,3.87,2,6.53,6.53,0,0,1,.95,2A8.4,8.4,0,0,1,144.76,140.23Zm-2.37,0a6.83,6.83,0,0,0-.38-2.16,2.43,2.43,0,0,0-1.44-1.56,1,1,0,0,1-.42.51,1.09,1.09,0,0,1-.65.2.69.69,0,0,0-.63.42,3.57,3.57,0,0,0-.38,1,8.18,8.18,0,0,0-.2,1.1c0,.37-.06.65-.06.83a8.65,8.65,0,0,0,.14,1.57,6,6,0,0,0,.38,1.28,3,3,0,0,0,.53.89.86.86,0,0,0,.65.34,1.47,1.47,0,0,0,1-.4,3.33,3.33,0,0,0,.77-1,5.9,5.9,0,0,0,.5-1.4A7.09,7.09,0,0,0,142.39,140.23Z"/><path class="cls-10" d="M155,140q-.07-.63-.18-1.38a7.93,7.93,0,0,0-.29-1.39c-.16-.53-.36-.83-.6-.91a3.21,3.21,0,0,0-.27.46,9,9,0,0,0-.48,1.28,14.42,14.42,0,0,0-.47,1.76c-.13.65-.27,1.3-.4,2s-.25,1.13-.35,1.66-.23,1-.36,1.46a5.58,5.58,0,0,1-.63,1.43,1.48,1.48,0,0,1-1.35.71,2.47,2.47,0,0,1-1.78-.69,4.76,4.76,0,0,1-1.1-1.68,9.05,9.05,0,0,1-.56-2.12,15.24,15.24,0,0,1-.16-2,13,13,0,0,1,.12-1.64,6.91,6.91,0,0,1,.46-1.76,4.14,4.14,0,0,1,.91-1.4,2.07,2.07,0,0,1,1.52-.58,1.17,1.17,0,0,1,.81.28,1.78,1.78,0,0,1,.44.67,3,3,0,0,1,.15.87c0,.32,0,.6,0,.83a2.74,2.74,0,0,1,0,.5v.57c.11-.45.23-.95.38-1.52a7.51,7.51,0,0,1,.61-1.62,5,5,0,0,1,.95-1.31,1.94,1.94,0,0,1,1.39-.53,5.21,5.21,0,0,1,2,.39,4.6,4.6,0,0,1,1.58,1.11,5.33,5.33,0,0,1,1,1.66,5.49,5.49,0,0,1,.38,2,3.71,3.71,0,0,1-.67,2.27,2.07,2.07,0,0,1-1.74.89,1.1,1.1,0,0,1-.91-.39,1.81,1.81,0,0,1-.4-.95,2.75,2.75,0,0,1-.06-.44C155.09,140.31,155.07,140.13,155,140Z"/><path class="cls-5" d="M168.29,138.92c0-.39,0-.8,0-1.2a4.47,4.47,0,0,0-.18-1.17,1.71,1.71,0,0,0-.35.43c-.13.22-.29.52-.48.91a16.15,16.15,0,0,0-.79,2.06c-.23.77-.46,1.5-.67,2.22l-.46,1.52a10.43,10.43,0,0,1-.45,1.28,3.47,3.47,0,0,1-.24.56,4.31,4.31,0,0,1-.37.61,2,2,0,0,1-.56.51,1.34,1.34,0,0,1-.77.22,2.11,2.11,0,0,1-1.56-.61,4.48,4.48,0,0,1-1-1.48,7.11,7.11,0,0,1-.47-1.84,14,14,0,0,1-.12-1.68,11.51,11.51,0,0,1,.16-1.82,8,8,0,0,1,.53-1.94,4.18,4.18,0,0,1,1-1.53,2.46,2.46,0,0,1,1.7-.61,1.09,1.09,0,0,1,1,.5,2,2,0,0,1,.31,1.08,2.61,2.61,0,0,1,0,.4c0,.13,0,.28-.05.43a3,3,0,0,1,0,.42c0,.15,0,.3-.05.45.15-.44.34-.94.55-1.48a7.14,7.14,0,0,1,.79-1.5,5.16,5.16,0,0,1,1.11-1.17,2.4,2.4,0,0,1,1.46-.47,3.27,3.27,0,0,1,2.12.69,5.12,5.12,0,0,1,1.36,1.74,8.1,8.1,0,0,1,.71,2.25,12.42,12.42,0,0,1,.06,4.08,8,8,0,0,1-.51,2,4.56,4.56,0,0,1-1,1.58,2.36,2.36,0,0,1-1.7.65,1,1,0,0,1-1-.61,3.34,3.34,0,0,1-.26-1.29c0-.5,0-1.26.12-2.29.06-.61.1-1.25.12-1.94S168.29,139.53,168.29,138.92Z"/><path class="cls-11" d="M180.2,134.06a3.47,3.47,0,0,1,2.35.83,2.75,2.75,0,0,1,1,2.21,1.11,1.11,0,0,1-.36.83,1.16,1.16,0,0,1-1.68,0,1.16,1.16,0,0,1-.33-.83.63.63,0,0,0-.22-.47.74.74,0,0,0-.5-.2.81.81,0,0,0-.57.24.83.83,0,0,0-.26.63,1.13,1.13,0,0,0,.81,1q.81.36,1.8.87a6.89,6.89,0,0,1,1.8,1.36,3.58,3.58,0,0,1,.81,2.55,2.8,2.8,0,0,1-.55,1.76,4.56,4.56,0,0,1-1.4,1.21,6.47,6.47,0,0,1-1.84.69,8.26,8.26,0,0,1-1.82.22,5,5,0,0,1-2.12-.45,5.35,5.35,0,0,1-1.66-1.21,5.74,5.74,0,0,1-1.09-1.76,5.82,5.82,0,0,1-.39-2.12,1.13,1.13,0,0,1,1.18-1.18,1.15,1.15,0,0,1,1.19,1.18,3.48,3.48,0,0,0,.3,1.53,2.69,2.69,0,0,0,.73,1,2.87,2.87,0,0,0,.93.52,3,3,0,0,0,.85.16,1,1,0,0,0,1-.4,1.78,1.78,0,0,0,.23-.95,2,2,0,0,0-.65-1.66,8.88,8.88,0,0,0-1.8-1l-1-.49a4.52,4.52,0,0,1-.91-.61,3.15,3.15,0,0,1-.65-.84,2.26,2.26,0,0,1-.26-1.1,2.4,2.4,0,0,1,.54-1.57,4.57,4.57,0,0,1,1.3-1.08,6,6,0,0,1,1.69-.63A7.34,7.34,0,0,1,180.2,134.06Z"/><path class="cls-12" d="M93.86,51.35a2.78,2.78,0,0,1-5.47.72l-2.48.9,0-.06c.58-.43,1.15-.89,1.76-1.28.77-.49,1.58-.93,2.38-1.38a3,3,0,0,1,2.43-.2,9.52,9.52,0,0,1,3.09,1.69Z"/><path class="cls-13" d="M92.33,0a52.58,52.58,0,1,0,35,91.83c-2.39-7.59-9.66-25.54-25.57-27.68,0,0-8.74,11.82-16.24,8,0,0-1.34,8.66-9.31,7.58s-6.82-7.52-6.82-7.52-1.72-4.44,3.44-7.68c0,0,5.38-5.15,6-10.74a28.43,28.43,0,0,1,.91-4.88L54.44,20.45l31.86,17c.58-.67,1.18-1.34,1.85-2L84.87,25.06s7.66-1.65,13.91,5.71c0,0,28.64,2.64,46.05,24.66,0-1,.08-1.9.08-2.86A52.58,52.58,0,0,0,92.33,0Z"/></g></g></svg>